# xmcd
#
# Track frame offsets:
#	150
#	15082
#	29881
#	48977
#	64114
#	80722
#	95562
#	109603
#	124397
#	137900
#
# Disc length: 2030 seconds
#
# Revision: 1
# Processed by: cddbd v1.4b42PL1 Copyright (c) Steve Scherf et al.
# Submitted via: audiograbber 1.80.04
#
DISCID=8807ec0a
DTITLE=Sherrié Austin - Followin' A Feelin'
DYEAR=2001
DGENRE=Country
TTITLE0=Followin' A Feelin'
TTITLE1=Jolene
TTITLE2=Goin', Goin', Gone
TTITLE3=Somethin' Missin' In The Kissin'
TTITLE4=In The Meantime
TTITLE5=My Brilliant Mistake
TTITLE6=In Our Own Sweet Time
TTITLE7=Love Melts Even The Coldest Hearts
TTITLE8=Back Where I Belong
TTITLE9=Time, Love and Money
EXTD=http://www.sherrieaustin.com
EXTT0=
EXTT1=
EXTT2=
EXTT3=
EXTT4=
EXTT5=
EXTT6=
EXTT7=
EXTT8=
EXTT9=
PLAYORDER=
